<?xml version="1.0" encoding="utf-8"?>
<!DOCTYPE svg PUBLIC "-//W3C//DTD SVG 1.1//EN" "http://www.w3.org/Graphics/SVG/1.1/DTD/svg11.dtd">
<svg version="1.1" id="Layer_1" xmlns="http://www.w3.org/2000/svg" xmlns:xlink="http://www.w3.org/1999/xlink" x="0px" y="0px"
	 viewBox="0 0 2666 1326" enable-background="new 0 0 2666 1326" xml:space="preserve">
<path d="M2109.968,219.552c-0.156,0.12-2.303-4.102-2.395-4.275c-87.88-166.661-352.098-162.187-451.852-6.747
	c-111.705,174.064-12.635,357.789,126.701,510.672c119.265,130.707,310.019,279.048,310.019,279.048
	c11.409,17.05,17.707,31.102,15.761,60.815c-1.458,22.273-12.205,50.39-25.63,68.723c-86.016,117.459-283.732,59.959-402.904-29.434
	c-150.133-112.567-143.112-228.673-236.995-251.703c-16.742-4.107-34.951-3.554-53.318,2.524
	c-65.817,21.634-93.452,90.239-114.956,131.218c-91.133,176.7-317.44,251.286-499.745,140.786
	c-51.958-31.435-65.929-52.838-78.965-94.586c-1.944-6.225-7.752-16.325-5.266-22.792c0.347-0.903,4.497,0.865,22.343,4.605
	c13.33,2.805,7.089,2.167,28.11,2.534c42.755,0.73,34.68,7.984,90.273-4.736c26.791-6.134,42.747-12.286,59.812-23.069
	c21.854-13.806,38.448-34.83,40.082-50.803c0.288-2.796,0.315-2.831,3.583-6.169c5.916-6.038,8.013-10.923,9.97-23.13
	c1.378-8.626,0.937-3.438-2.648-22.107c5.913-0.005,19.075,0.093,25.157-0.568c78.023-8.487,107.39-76.177,110.685-154.271
	c0.383-9.06,3.256-128.633-31.492-166.819c-2.587-2.84-2.63-2.927-4.535-9.516c-5.968-20.587-17.266-40.973-29.884-53.896
	c-4.859-4.988-5.944-5.403-15.571-11.167c-1.172-13.641-1.235-37.263-23.593-66.165c-10.754-13.899-28.043-29.454-47.928-40.082
	c-1.98-8.151-6.28-18.73-21.583-33.257c-9.27-8.807-19.317-36.574-72.989-64.443c-42.24-21.935-78.253-26.01-87.057-30.12
	c-33.482-15.653-64.566-18.309-96.652-17.476c-38.358-20.603-76.261-22.009-118.086-11.98
	c-40.371-6.201-73.455-3.076-108.981,10.451c-67.916-6.634-121.111,11.759-161.349,49.728
	c-58.055-7.724-109.341,78.118-136.733,94.197C98.772,388.84,82.687,416.92,73.97,442.973c-3.331,9.966-4.085,7.596-10.931,21.199
	c-8.112,16.179-14.009,38.812-2.648,52.935c1.85,2.28,1.768,2.125-0.778,6.589c-18.273,31.84,4.501,72.307,29.666,99.029
	c9.292,45.137,38.015,86.652,140.858,105.591c3.422,10.917,7.077,14.292,17.214,24.694l0.638,5.566
	c1.304,11.104,3.781,9.572,2.822,14.068c-6.27,28.906,38.338,48.419,46.906,55.531c66.297,54.866,141.313,55.602,226.622,37.556
	c0,0,14.724,37.445,47.037,60.738c9.541,6.902,60.953,103.045,64.767,113.737c28.991,81.259,192.675,192.407,363.987,173.425
	c129.177-14.995,235.424-89.894,292.831-181.136c33.475-53.205,43.571-96.706,80.508-124.467
	c20.988-15.861,44.284-21.894,69.171-13.028c62.995,24.028,65.175,127.137,211.752,237.057
	c88.56,66.428,213.705,116.075,322.461,100.959c114.342-15.894,182.637-111.072,173.557-199.802
	c39.52-29.508,78.492-59.941,116.706-91.578l34.026,41.085c2.36,2.85,6.712,3.174,9.699,0.675l12.651-10.6
	c2.974-2.525,3.44-6.861,1.041-9.685c-20.588-24.235-20.913-14.778,35.162-65.29c8.68-7.839,13.098-20.397,15.223-31.891
	c4.243-22.761-1.933-25.04,6.062-37.911c5.385-8.593,25.519-27.014,40.847-22.475c2.582,0.772,2.848,0.039,15.624-12.696
	c-22.324-21.441-20.36-5.163,41.925-79.18c6.081-7.197,49.629-59.773,51.882-69.01c1.568-6.318-0.543-13.792-6.693-18.025
	c-9.897-6.813-3.621-6.739,24.207-53.75c34.479-60.782,58.246-119.122,63.541-188.855
	C2631.764,85.568,2232.828-13.972,2109.968,219.552z M2148.348,1019.631c-2.047-10.066-5.37-19.885-9.984-29.082l-1.828-3.487
	c-0.628-1.152-1.321-2.268-1.981-3.403l-1.006-1.693l-1.085-1.644c-0.733-1.089-1.432-2.203-2.199-3.269l-2.347-3.166
	c-0.374-0.546-0.781-1.056-1.31-1.45l-1.476-1.29l-5.906-5.163l-5.909-5.165c-0.483-0.437-1-0.851-1.519-1.263l-1.549-1.244
	l-3.099-2.487c-4.104-3.298-8.209-6.597-12.317-9.898c-2.734-2.202-5.464-4.411-8.194-6.62
	c36.631-27.439,72.625-55.596,107.72-84.639l64.587,78.023l0,0C2222.725,962.663,2185.793,991.561,2148.348,1019.631z
	 M2570.276,381.251c-0.111,1.45-0.221,2.898-0.331,4.344l-0.163,2.167l-0.083,1.082l-0.122,1.08c-0.32,2.88-0.64,5.75-0.958,8.611
	c-0.417,2.856-0.833,5.703-1.247,8.54c-0.183,1.421-0.47,2.83-0.718,4.241c-0.254,1.41-0.507,2.818-0.76,4.223
	c-2.119,11.233-4.814,22.249-7.937,33.02c-3.204,10.756-6.845,21.257-10.779,31.505c-1.021,2.551-2.038,5.093-3.052,7.625
	l-0.764,1.896l-0.807,1.878c-0.537,1.251-1.073,2.5-1.609,3.746c-0.535,1.247-1.068,2.491-1.601,3.732
	c-0.524,1.244-1.116,2.463-1.669,3.693c-1.123,2.453-2.241,4.896-3.355,7.33c-1.172,2.413-2.338,4.816-3.5,7.209
	c-0.583,1.196-1.164,2.39-1.745,3.581c-0.607,1.181-1.212,2.359-1.817,3.536c-1.21,2.352-2.415,4.694-3.615,7.026
	c-1.25,2.312-2.494,4.614-3.734,6.906c-0.62,1.146-1.239,2.289-1.857,3.431c-0.642,1.13-1.282,2.259-1.92,3.384
	c-1.277,2.252-2.548,4.494-3.814,6.726c-1.31,2.212-2.614,4.414-3.912,6.606c-1.303,2.19-2.577,4.382-3.928,6.524
	c-1.332,2.151-2.657,4.292-3.977,6.424c-0.659,1.066-1.313,2.132-1.998,3.178c-0.392,0.609-0.784,1.216-1.174,1.822
	c-0.155,0.24-0.308,0.478-0.459,0.713c-0.303,0.471-0.601,0.933-0.893,1.385c-1.166,1.81-2.237,3.473-3.205,4.975
	c-3.974,5.952-6.245,9.352-6.245,9.352c-0.962,1.456-2.464,2.349-4.089,2.62c-1.622,0.274-3.361-0.069-4.838-1.087l-1.569-1.081
	c-3.899-2.684-8.478-3.604-12.698-2.962c-2.12,0.318-4.113,1.046-5.964,2.118c-1.841,1.077-3.475,2.53-4.779,4.349
	c0,0-1.311,1.818-3.604,4.999c-1.171,1.579-2.592,3.497-4.223,5.696c-0.815,1.1-1.682,2.271-2.596,3.505
	c-0.933,1.224-1.914,2.512-2.938,3.855c-8.149,10.768-19.39,24.935-31.118,38.815c-11.695,13.9-23.868,27.508-33.161,37.597
	c-4.608,5.072-8.568,9.215-11.296,12.147c-2.73,2.93-4.326,4.578-4.326,4.578c-2.737,2.858-7.341,2.879-10.284,0.047l-10.505-10.09
	c0,0-0.642,0.706-1.605,1.765c-0.959,1.061-2.247,2.471-3.554,3.868c-2.603,2.803-5.205,5.605-5.205,5.605
	c-0.861,0.927-1.125,2.273-0.683,3.512c0.789,2.198,1.601,6.251,0.123,11.874c-0.746,2.806-2.039,6.025-4.246,9.556
	c-2.216,3.524-5.279,7.412-9.538,11.56c0,0-2.659,2.88-7.067,5.347c-4.389,2.481-10.608,4.476-17.582,2.764
	c0,0-8.534-0.987-19.068-0.232c-2.629,0.192-5.38,0.498-8.149,0.962c-2.781,0.456-5.591,1.064-8.315,1.882
	c-2.725,0.817-5.37,1.841-7.834,3.121c-2.478,1.27-4.786,2.789-6.812,4.619c-2.029,1.828-4.146,3.736-6.3,5.676
	c-2.171,1.928-4.377,3.887-6.565,5.83c-4.359,3.898-8.713,7.676-12.531,11.02c-3.809,3.351-7.155,6.21-9.522,8.253
	c-2.369,2.041-3.775,3.253-3.775,3.253s-2.346,1.89-5.453,2.898c-3.1,1.015-6.918,1.171-9.817-2.248l-10.738-12.653
	c-2.399-2.824-6.513-3.272-9.188-0.999l-11.436,9.581c-2.697,2.258-2.999,6.38-0.633,9.239l34.026,41.085
	c-35.837,29.669-72.639,58.435-110.125,86.46c-8.06-6.556-16.107-13.137-24.14-19.747c-27.931-22.979-55.627-46.348-82.936-70.195
	c-27.303-23.852-54.172-48.23-80.367-73.263c-26.191-25.034-51.644-50.786-75.954-77.429c-24.29-26.649-47.426-54.22-68.567-82.981
	c-10.565-14.38-20.623-29.057-30.015-44.054c-9.406-14.989-18.089-30.327-25.893-45.982c-7.793-15.656-14.753-31.62-20.505-47.877
	c-5.705-16.264-10.304-32.787-13.454-49.459l-1.073-6.261l-0.536-3.13l-0.425-3.138l-0.857-6.274l-0.636-6.284l-0.317-3.141
	c-0.118-1.046-0.144-2.096-0.222-3.143l-0.399-6.285c-0.086-1.047-0.087-2.094-0.118-3.141l-0.08-3.141l-0.083-3.14
	c-0.01-0.523-0.037-1.047-0.034-1.569l0.021-1.568l0.076-6.269l0.017-1.567l0.076-1.563l0.16-3.125l0.157-3.125
	c0.055-1.041,0.086-2.085,0.2-3.12l0.561-6.224c0.106-1.036,0.153-2.078,0.306-3.108l0.405-3.096
	c0.275-2.063,0.522-4.129,0.812-6.189l1.051-6.151l0.52-3.075l0.642-3.053l1.288-6.103c0.455-2.036,1.015-4.081,1.515-6.12
	l0.769-3.061c0.268-1.016,0.483-2.051,0.798-3.05l1.764-6.036l0.878-3.018c0.29-1.007,0.653-1.985,0.974-2.978l1.983-5.94
	l0.494-1.485c0.172-0.492,0.366-0.974,0.547-1.461l1.105-2.917c0.743-1.941,1.453-3.898,2.218-5.827l2.431-5.719l1.21-2.86
	c0.415-0.947,0.878-1.869,1.313-2.804l2.645-5.596c0.422-0.943,0.927-1.839,1.399-2.752l1.434-2.731l1.43-2.732l0.717-1.364
	l0.772-1.329l3.079-5.32l0.768-1.331c0.256-0.443,0.545-0.864,0.816-1.298l1.648-2.584l1.644-2.585
	c0.55-0.86,1.079-1.735,1.68-2.557c9.179-13.47,19.643-25.961,31.549-36.849c11.784-11.021,24.975-20.401,38.929-28.384l5.313-2.859
	c0.891-0.467,1.755-0.98,2.666-1.41l2.714-1.32l2.712-1.323c0.906-0.435,1.796-0.904,2.728-1.289l5.529-2.426
	c1.824-0.848,3.729-1.518,5.596-2.272l2.81-1.106l1.404-0.554l1.428-0.496l5.707-1.992c0.477-0.163,0.947-0.342,1.429-0.491
	l1.447-0.442l2.892-0.886c15.405-4.787,31.368-7.79,47.446-9.54c1.001-0.135,2.013-0.2,3.021-0.286l3.025-0.25
	c2.022-0.158,4.017-0.362,6.069-0.47c4.082-0.247,8.156-0.414,12.22-0.501c2.032-0.043,4.061-0.065,6.088-0.068
	c2.023,0.032,4.045,0.063,6.066,0.095l3.031,0.046c1.01,0.017,2.012,0.091,3.018,0.133c2.01,0.097,4.02,0.195,6.028,0.292
	c2.003,0.131,3.996,0.323,5.993,0.479l2.993,0.244c0.996,0.088,1.983,0.226,2.974,0.336c1.981,0.231,3.961,0.461,5.94,0.692
	c1.964,0.298,3.927,0.597,5.89,0.895c0.98,0.153,1.964,0.289,2.941,0.454l2.914,0.553c1.939,0.38,3.892,0.706,5.818,1.123
	c1.921,0.435,3.841,0.871,5.76,1.305l1.44,0.324c0.478,0.115,0.949,0.25,1.424,0.373l2.844,0.756
	c3.814,0.938,7.522,2.169,11.266,3.284c1.842,0.637,3.683,1.273,5.523,1.91c0.915,0.33,1.851,0.608,2.749,0.978l2.714,1.058
	l2.715,1.054c0.451,0.178,0.908,0.345,1.355,0.531l1.333,0.579c1.778,0.769,3.555,1.538,5.332,2.306
	c1.754,0.814,3.488,1.667,5.234,2.494c0.866,0.427,1.756,0.806,2.602,1.272l2.559,1.349c3.447,1.735,6.749,3.721,10.093,5.623
	c3.253,2.056,6.556,4.025,9.697,6.241c1.588,1.082,3.185,2.126,4.75,3.321l2.359,1.736l1.18,0.867
	c0.417,0.318,0.733,0.511,1.233,0.933c1.916,1.579,3.83,3.156,5.744,4.733l1.435,1.182l1.369,1.286l2.731,2.578l2.729,2.576
	c0.464,0.411,0.882,0.909,1.321,1.368l1.303,1.401l2.605,2.8l1.302,1.399c0.437,0.46,0.869,0.93,1.28,1.447
	c1.669,2.014,3.336,4.026,5.002,6.038c0.415,0.506,0.836,0.998,1.246,1.516l1.226,1.565l2.451,3.128l2.449,3.126l2.405,3.207
	c1.594,2.151,3.211,4.266,4.784,6.444c1.563,2.193,3.124,4.384,4.685,6.574c0.787,1.087,1.552,2.198,2.308,3.319l2.28,3.346
	l2.279,3.344c0.76,1.114,1.482,2.257,2.224,3.384c1.473,2.262,2.945,4.523,4.415,6.782c2.842,4.566,5.746,9.109,8.446,13.701
	c2.791,4.576,5.382,9.162,8.016,13.739c1.3,2.287,2.527,4.568,3.792,6.85l1.884,3.421l1.8,3.401l1.792,3.398l0.895,1.698
	c0.299,0.575,0.596,1.298,0.893,0.843c1.188-2.259,2.376-4.517,3.563-6.774c1.162-2.251,2.432-4.523,3.669-6.787
	c1.256-2.266,2.449-4.525,3.768-6.793c1.294-2.266,2.587-4.529,3.879-6.792c1.315-2.261,2.677-4.516,4.011-6.771l2.016-3.38
	l2.079-3.361c1.396-2.235,2.748-4.489,4.177-6.704c5.644-8.907,11.554-17.609,17.581-26.089
	c6.069-8.435,12.303-16.545,18.638-24.315c6.433-7.54,13.18-14.349,20.369-20.441c0.887-0.779,1.824-1.488,2.741-2.224l2.402-1.868
	c0.724-0.554,1.43-1.133,2.166-1.668l2.213-1.594l2.209-1.596c0.734-0.535,1.468-1.069,2.229-1.56
	c1.507-1.007,3.012-2.013,4.516-3.018c12.156-7.832,24.98-14.369,38.32-19.324l2.492-0.949c0.834-0.307,1.683-0.57,2.523-0.858
	c1.683-0.567,3.365-1.133,5.046-1.699c1.703-0.499,3.405-0.997,5.105-1.494c0.851-0.246,1.697-0.509,2.551-0.743l2.578-0.645
	c1.719-0.425,3.429-0.878,5.15-1.286c1.732-0.364,3.463-0.728,5.193-1.092c0.866-0.177,1.725-0.38,2.595-0.536l2.615-0.444
	c1.742-0.296,3.483-0.591,5.222-0.887c13.985-2.034,28.128-2.753,42.228-2.279c3.525,0.128,7.047,0.329,10.563,0.605
	c1.758,0.135,3.515,0.291,5.271,0.463l2.632,0.269l2.659,0.329c1.773,0.219,3.543,0.438,5.313,0.656
	c0.884,0.114,1.771,0.207,2.65,0.336l2.632,0.41c3.505,0.56,7.023,1.033,10.478,1.737c13.886,2.54,27.425,5.986,40.46,10.359
	c6.53,2.158,12.894,4.635,19.152,7.251l1.177,0.484l1.155,0.525l2.309,1.048c1.539,0.696,3.077,1.391,4.613,2.086
	c1.506,0.75,3.01,1.498,4.512,2.246l2.252,1.121c0.751,0.372,1.506,0.738,2.231,1.151c11.823,6.255,22.96,13.418,33.254,21.404
	c20.652,15.915,37.645,35.365,50.586,56.729c12.965,21.358,21.858,44.703,27.11,68.345
	C2570.35,334.229,2571.798,358.053,2570.276,381.251z"/>
</svg>
